<svg xmlns="http://www.w3.org/2000/svg" viewBox="0 0 96 96" width="96" height="96" role="img" aria-label="Facial Cleanser">
  <defs>
    <linearGradient id="fcBody" x1="0" y1="0" x2="1" y2="0">
      <stop offset="0" stop-color="#FFFFFF"/>
      <stop offset=".5" stop-color="#FFF4F8"/>
      <stop offset="1" stop-color="#EDC2D5"/>
    </linearGradient>
    <linearGradient id="fcCap" x1="0" y1="0" x2="1" y2="0">
      <stop offset="0" stop-color="#F06292"/>
      <stop offset="1" stop-color="#A3134B"/>
    </linearGradient>
  </defs>
  <rect width="96" height="96" rx="18" fill="#FCE7F0"/>
  <ellipse cx="48" cy="84" rx="21" ry="4" fill="#000000" opacity=".07"/>
  <rect x="44" y="13" width="6" height="13" fill="url(#fcCap)"/>
  <path d="M44 13h13a3 3 0 0 1 0 6H44z" fill="url(#fcCap)"/>
  <rect x="38" y="25" width="18" height="9" rx="3" fill="url(#fcCap)"/>
  <path d="M34 34h28a6 6 0 0 1 6 6v36a8 8 0 0 1-8 8H36a8 8 0 0 1-8-8V40a6 6 0 0 1 6-6z" fill="url(#fcBody)"/>
  <rect x="28" y="48" width="40" height="23" fill="#EC407A"/>
  <rect x="37" y="54" width="22" height="4" rx="2" fill="#FFFFFF" opacity=".95"/>
  <rect x="37" y="62" width="14" height="3" rx="1.5" fill="#FFFFFF" opacity=".6"/>
  <rect x="33" y="38" width="5" height="42" rx="2.5" fill="#FFFFFF" opacity=".5"/>
</svg>
