<svg xmlns="http://www.w3.org/2000/svg" viewBox="0 0 96 96" width="96" height="96" role="img" aria-label="Toothpaste">
  <defs>
    <linearGradient id="tpTube" x1="0" y1="0" x2="1" y2="0">
      <stop offset="0" stop-color="#FFFFFF"/>
      <stop offset=".5" stop-color="#F3FAF6"/>
      <stop offset="1" stop-color="#C3D3CB"/>
    </linearGradient>
    <linearGradient id="tpCap" x1="0" y1="0" x2="1" y2="0">
      <stop offset="0" stop-color="#4BD79A"/>
      <stop offset=".5" stop-color="#16A46C"/>
      <stop offset="1" stop-color="#0A6440"/>
    </linearGradient>
  </defs>
  <rect width="96" height="96" rx="18" fill="#FCE7F0"/>
  <ellipse cx="48" cy="86" rx="20" ry="4" fill="#000000" opacity=".07"/>
  <rect x="41" y="10" width="14" height="14" rx="3" fill="url(#tpCap)"/>
  <rect x="43" y="13" width="10" height="2" fill="#FFFFFF" opacity=".35"/>
  <rect x="43" y="17" width="10" height="2" fill="#FFFFFF" opacity=".35"/>
  <path d="M40 24h16l6 10H34z" fill="#DCE9E2"/>
  <path d="M33 34h30v38H33z" fill="url(#tpTube)"/>
  <rect x="33" y="44" width="30" height="24" fill="#16A46C"/>
  <rect x="38" y="50" width="20" height="4" rx="2" fill="#FFFFFF" opacity=".95"/>
  <rect x="38" y="58" width="12" height="3" rx="1.5" fill="#A5E8C9"/>
  <path d="M31 72h34v8a2 2 0 0 1-2 2H33a2 2 0 0 1-2-2z" fill="#AEBFB7"/>
  <path d="M35 72v12M41 72v12M47 72v12M53 72v12M59 72v12" stroke="#8B9E95" stroke-width="1.6"/>
  <path d="M33 34h5v38h-5z" fill="#FFFFFF" opacity=".6"/>
</svg>
